<svg width="47" height="54" viewBox="0 0 47 54" fill="none" xmlns="http://www.w3.org/2000/svg">
<path d="M43.6427 11.8102C41.7961 11.8102 40.2853 13.3286 40.2853 15.1845V22.7768C40.2853 23.2408 39.9076 23.6204 39.446 23.6204H37.7673C37.3057 23.6204 36.928 23.2408 36.928 22.7768V6.74868C36.928 4.89279 35.4172 3.37434 33.5706 3.37434C31.7241 3.37434 30.2133 4.89279 30.2133 6.74868V22.7768C30.2133 23.2408 29.8356 23.6204 29.374 23.6204H27.6953C27.2337 23.6204 26.856 23.2408 26.856 22.7768V3.37434C26.856 1.51845 25.3452 0 23.4986 0C21.6521 0 20.1413 1.51845 20.1413 3.37434V22.7768C20.1413 23.2408 19.7636 23.6204 19.3019 23.6204H17.6233C17.1616 23.6204 16.7839 23.2408 16.7839 22.7768V6.74868C16.7839 4.89279 15.2731 3.37434 13.4266 3.37434C11.5801 3.37434 10.0693 4.89279 10.0693 6.74868V32.1617L7.59323 28.7346C6.22931 26.8471 3.60639 26.4359 1.72837 27.8067C-0.149638 29.1775 -0.558814 31.8137 0.805106 33.7012L13.9827 51.9121C14.9269 53.2197 16.4482 54 18.0534 54H38.785C41.1247 54 43.1495 52.3866 43.6846 50.0984L46.4649 38.2144C46.8007 36.7698 46.979 35.2302 47 33.754V15.1845C47 13.3286 45.4892 11.8102 43.6427 11.8102ZM18.4626 43.8664C17.5393 43.8664 16.7839 43.1072 16.7839 42.1793C16.7839 41.2513 17.5393 40.4921 18.4626 40.4921C19.3859 40.4921 20.1413 41.2513 20.1413 42.1793C20.1413 43.1072 19.3859 43.8664 18.4626 43.8664ZM18.4626 33.7434C17.5393 33.7434 16.7839 32.9842 16.7839 32.0562C16.7839 31.1283 17.5393 30.3691 18.4626 30.3691C19.3859 30.3691 20.1413 31.1283 20.1413 32.0562C20.1413 32.9842 19.3859 33.7434 18.4626 33.7434ZM25.1773 47.2408C24.254 47.2408 23.4986 46.4816 23.4986 45.5536C23.4986 44.6257 24.254 43.8664 25.1773 43.8664C26.1006 43.8664 26.856 44.6257 26.856 45.5536C26.856 46.4816 26.1006 47.2408 25.1773 47.2408ZM25.1773 37.1178C24.254 37.1178 23.4986 36.3585 23.4986 35.4306C23.4986 34.5026 24.254 33.7434 25.1773 33.7434C26.1006 33.7434 26.856 34.5026 26.856 35.4306C26.856 36.3585 26.1006 37.1178 25.1773 37.1178ZM31.892 40.4921C30.9687 40.4921 30.2133 39.7329 30.2133 38.8049C30.2133 37.877 30.9687 37.1178 31.892 37.1178C32.8152 37.1178 33.5706 37.877 33.5706 38.8049C33.5706 39.7329 32.8152 40.4921 31.892 40.4921ZM35.2493 47.2408C34.326 47.2408 33.5706 46.4816 33.5706 45.5536C33.5706 44.6257 34.326 43.8664 35.2493 43.8664C36.1726 43.8664 36.928 44.6257 36.928 45.5536C36.928 46.4816 36.1726 47.2408 35.2493 47.2408ZM38.6067 33.7434C37.6834 33.7434 36.928 32.9842 36.928 32.0562C36.928 31.1283 37.6834 30.3691 38.6067 30.3691C39.5299 30.3691 40.2853 31.1283 40.2853 32.0562C40.2853 32.9842 39.5299 33.7434 38.6067 33.7434Z" fill="#F7EC86"/>
</svg>
