<svg width="120" height="120" viewBox="0 0 120 120" fill="none" xmlns="http://www.w3.org/2000/svg">
<rect x="0.5" y="0.5" width="119" height="119" rx="24.5" fill="white" stroke="#555454"/>
<path d="M75.5 64.8216C76.1038 64.8216 76.9862 64.3558 77.706 63.89C90.6868 55.5061 99 45.6783 99 35.7341C99 27.1406 93.0786 21.1787 85.6709 21.1787C81.0499 21.1787 77.5899 23.7405 75.5 27.5598C73.4565 23.7405 69.9733 21.1787 65.3523 21.1787C57.9214 21.1787 52 27.1406 52 35.7341C52 45.6783 60.3365 55.5061 73.294 63.89C74.0138 64.3558 74.8962 64.8216 75.5 64.8216Z" fill="url(#paint0_linear_632_7847)"/>
<path d="M75.5 64.8216C76.1038 64.8216 76.9862 64.3558 77.706 63.89C90.6868 55.5061 99 45.6783 99 35.7341C99 27.1406 93.0786 21.1787 85.6709 21.1787C81.0499 21.1787 77.5899 23.7405 75.5 27.5598C73.4565 23.7405 69.9733 21.1787 65.3523 21.1787C57.9214 21.1787 52 27.1406 52 35.7341C52 45.6783 60.3365 55.5061 73.294 63.89C74.0138 64.3558 74.8962 64.8216 75.5 64.8216Z" stroke="#555454"/>
<defs>
<linearGradient id="paint0_linear_632_7847" x1="109.5" y1="8.28423" x2="52.3664" y2="54.3651" gradientUnits="userSpaceOnUse">
<stop stop-color="#FE93A3"/>
<stop offset="1" stop-color="#EB4B62"/>
</linearGradient>
</defs>
</svg>
