<svg width="40" height="45" viewBox="0 0 40 45" fill="none" xmlns="http://www.w3.org/2000/svg">
<path d="M35.2917 5.20833H26.235C25.325 2.695 22.9417 0.875 20.125 0.875C17.3083 0.875 14.925 2.695 14.015 5.20833H4.95833C3.80906 5.20833 2.70686 5.66488 1.8942 6.47754C1.08155 7.29019 0.625 8.3924 0.625 9.54167V39.875C0.625 41.0243 1.08155 42.1265 1.8942 42.9391C2.70686 43.7518 3.80906 44.2083 4.95833 44.2083H35.2917C36.4409 44.2083 37.5431 43.7518 38.3558 42.9391C39.1685 42.1265 39.625 41.0243 39.625 39.875V9.54167C39.625 8.3924 39.1685 7.29019 38.3558 6.47754C37.5431 5.66488 36.4409 5.20833 35.2917 5.20833ZM20.125 5.20833C20.6996 5.20833 21.2507 5.43661 21.6571 5.84294C22.0634 6.24926 22.2917 6.80036 22.2917 7.375C22.2917 7.94964 22.0634 8.50074 21.6571 8.90706C21.2507 9.31339 20.6996 9.54167 20.125 9.54167C19.5504 9.54167 18.9993 9.31339 18.5929 8.90706C18.1866 8.50074 17.9583 7.94964 17.9583 7.375C17.9583 6.80036 18.1866 6.24926 18.5929 5.84294C18.9993 5.43661 19.5504 5.20833 20.125 5.20833ZM4.95833 27.8717H9.66L16.875 14.0483L18.9117 29.15L24.3067 22.2383L29.94 27.8717H35.2917V31.2083H28.5533L24.61 27.33L16.615 37.535L14.9683 25.0333L11.6967 31.2083H4.95833V27.8717Z" fill="#1A71FF"/>
</svg>
