<svg width="55" height="55" viewBox="0 0 55 55" fill="none" xmlns="http://www.w3.org/2000/svg">
<circle cx="27.5" cy="27.5" r="27.5" fill="#F5F9FA"/>
<path d="M22.8027 32.9716V33.9736C22.8027 36.0249 23.6176 37.9922 25.0681 39.4427C26.5186 40.8931 28.4858 41.708 30.5371 41.708C32.5884 41.708 34.5557 40.8931 36.0061 39.4427C37.4566 37.9922 38.2715 36.0249 38.2715 33.9736V31.1033C37.1242 30.6979 36.1573 29.8999 35.5415 28.8504C34.9257 27.8009 34.7008 26.5675 34.9065 25.3682C35.1122 24.1689 35.7352 23.081 36.6655 22.2967C37.5958 21.5123 38.7734 21.0822 39.9902 21.0822C41.207 21.0822 42.3846 21.5123 43.3149 22.2967C44.2452 23.081 44.8683 24.1689 45.074 25.3682C45.2797 26.5675 45.0547 27.8009 44.439 28.8504C43.8232 29.8999 42.8562 30.6979 41.709 31.1033V33.9736C41.709 36.9366 40.5319 39.7782 38.4368 41.8733C36.3417 43.9685 33.5001 45.1455 30.5371 45.1455C27.5741 45.1455 24.7325 43.9685 22.6374 41.8733C20.5423 39.7782 19.3652 36.9366 19.3652 33.9736V32.9716C16.962 32.5654 14.7803 31.3211 13.2072 29.4594C11.634 27.5978 10.7711 25.2391 10.7715 22.8018V14.208C10.7715 13.2963 11.1336 12.422 11.7783 11.7773C12.423 11.1327 13.2973 10.7705 14.209 10.7705H15.9277C16.3836 10.7705 16.8207 10.9516 17.1431 11.2739C17.4654 11.5962 17.6465 12.0334 17.6465 12.4893C17.6465 12.9451 17.4654 13.3823 17.1431 13.7046C16.8207 14.0269 16.3836 14.208 15.9277 14.208H14.209V22.8018C14.209 24.6251 14.9333 26.3738 16.2226 27.6631C17.5119 28.9524 19.2606 29.6768 21.084 29.6768C22.9073 29.6768 24.656 28.9524 25.9453 27.6631C27.2347 26.3738 27.959 24.6251 27.959 22.8018V14.208H26.2402C25.7844 14.208 25.3472 14.0269 25.0249 13.7046C24.7026 13.3823 24.5215 12.9451 24.5215 12.4893C24.5215 12.0334 24.7026 11.5962 25.0249 11.2739C25.3472 10.9516 25.7844 10.7705 26.2402 10.7705H27.959C28.8707 10.7705 29.745 11.1327 30.3897 11.7773C31.0343 12.422 31.3965 13.2963 31.3965 14.208V22.8018C31.3969 25.2391 30.5339 27.5978 28.9608 29.4594C27.3877 31.3211 25.206 32.5654 22.8027 32.9716ZM39.9902 27.958C40.4461 27.958 40.8832 27.7769 41.2056 27.4546C41.5279 27.1323 41.709 26.6951 41.709 26.2393C41.709 25.7834 41.5279 25.3462 41.2056 25.0239C40.8832 24.7016 40.4461 24.5205 39.9902 24.5205C39.5344 24.5205 39.0972 24.7016 38.7749 25.0239C38.4526 25.3462 38.2715 25.7834 38.2715 26.2393C38.2715 26.6951 38.4526 27.1323 38.7749 27.4546C39.0972 27.7769 39.5344 27.958 39.9902 27.958Z" fill="#11587B"/>
</svg>
