<svg width="36" height="50" viewBox="0 0 36 50" fill="none" xmlns="http://www.w3.org/2000/svg">
<path d="M7.96289 25.0685H11.6358L15.2624 19.1523L19.9309 31.2792L23.4367 25.0685H27.8029" stroke="#BDBBBB" stroke-width="3" stroke-linecap="round" stroke-linejoin="round"/>
<path d="M17.8867 41.0385C19.9879 41.0385 22.0684 40.6254 24.0097 39.8228C25.9509 39.0202 27.7147 37.8438 29.2004 36.3609C30.6862 34.8779 31.8647 33.1173 32.6688 31.1797C33.4729 29.2421 33.8867 27.1653 33.8867 25.0681C33.8867 22.9708 33.4729 20.8941 32.6688 18.9565C31.8647 17.0188 30.6862 15.2583 29.2004 13.7753C27.7147 12.2923 25.9509 11.1159 24.0097 10.3133C22.0684 9.51074 19.9879 9.09766 17.8867 9.09766C13.6433 9.09766 9.57359 10.7802 6.57301 13.7753C3.57243 16.7703 1.88672 20.8325 1.88672 25.0681C1.88672 29.3037 3.57243 33.3658 6.57301 36.3609C9.57359 39.3559 13.6433 41.0385 17.8867 41.0385Z" stroke="#BDBBBB" stroke-width="3" stroke-linecap="round" stroke-linejoin="round"/>
<path d="M26.7778 11.7597V5.54898C26.7778 4.60773 26.4032 3.70504 25.7364 3.03947C25.0696 2.37391 24.1652 2 23.2222 2H12.5556C11.6126 2 10.7082 2.37391 10.0414 3.03947C9.3746 3.70504 9 4.60773 9 5.54898V11.7597M26.7778 38.3203V44.5878C26.7778 45.529 26.4032 46.4317 25.7364 47.0973C25.0696 47.7628 24.1652 48.1367 23.2222 48.1367H12.5556C11.6126 48.1367 10.7082 47.7628 10.0414 47.0973C9.3746 46.4317 9 45.529 9 44.5878V38.3203" stroke="#BDBBBB" stroke-width="3" stroke-linecap="round" stroke-linejoin="round"/>
</svg>
