<svg width="68" height="70" viewBox="0 0 68 70" fill="none" xmlns="http://www.w3.org/2000/svg">
<rect y="0.936523" width="68" height="68.1266" rx="15" fill="#607D8B"/>
<path d="M38.6667 26.6667H47.8333L38.6667 17.5V26.6667ZM27 15H40.3333L50.3333 25V45C50.3333 45.8841 49.9821 46.7319 49.357 47.357C48.7319 47.9821 47.8841 48.3333 47 48.3333H27C26.1159 48.3333 25.2681 47.9821 24.643 47.357C24.0179 46.7319 23.6667 45.8841 23.6667 45V18.3333C23.6667 17.4493 24.0179 16.6014 24.643 15.9763C25.2681 15.3512 26.1159 15 27 15ZM20.3333 21.6667V51.6667H47V55H20.3333C19.4493 55 18.6014 54.6488 17.9763 54.0237C17.3512 53.3986 17 52.5507 17 51.6667V21.6667H20.3333Z" fill="white"/>
</svg>
