<svg width="22" height="26" viewBox="0 0 22 26" fill="none" xmlns="http://www.w3.org/2000/svg">
<path d="M21.9083 17.4257C21.8454 17.2781 21.7586 17.1418 21.6516 17.0222L17.9839 13.3546C17.7537 13.1244 17.4414 12.995 17.1159 12.995C16.7903 12.995 16.478 13.1244 16.2478 13.3546C16.0176 13.5848 15.8883 13.897 15.8883 14.2226C15.8883 14.5482 16.0176 14.8604 16.2478 15.0906L17.8372 16.6677H11.003C10.6788 16.6677 10.3678 16.7965 10.1386 17.0258C9.90929 17.2551 9.78049 17.566 9.78049 17.8903C9.78049 18.2145 9.90929 18.5255 10.1386 18.7547C10.3678 18.984 10.6788 19.1128 11.003 19.1128H17.8372L16.2478 20.6899C16.1332 20.8036 16.0423 20.9388 15.9802 21.0878C15.9182 21.2368 15.8862 21.3966 15.8862 21.5579C15.8862 21.7193 15.9182 21.8791 15.9802 22.0281C16.0423 22.1771 16.1332 22.3123 16.2478 22.426C16.3615 22.5406 16.4967 22.6315 16.6457 22.6936C16.7947 22.7556 16.9545 22.7876 17.1159 22.7876C17.2772 22.7876 17.437 22.7556 17.586 22.6936C17.735 22.6315 17.8702 22.5406 17.9839 22.426L21.6516 18.7583C21.7657 18.6443 21.8533 18.5065 21.9083 18.3548C22.0306 18.0572 22.0306 17.7233 21.9083 17.4257ZM13.4482 22.7805H3.66768C3.34344 22.7805 3.03248 22.6517 2.8032 22.4224C2.57393 22.1932 2.44512 21.8822 2.44512 21.5579V4.4421C2.44512 4.11785 2.57393 3.80689 2.8032 3.57762C3.03248 3.34834 3.34344 3.21954 3.66768 3.21954H9.78049V6.88722C9.78049 7.85995 10.1669 8.79284 10.8547 9.48066C11.5426 10.1685 12.4754 10.5549 13.4482 10.5549H18.3384C18.5798 10.5537 18.8154 10.4811 19.0155 10.3462C19.2157 10.2113 19.3715 10.0202 19.4632 9.79691C19.5568 9.57427 19.5824 9.32889 19.5367 9.09172C19.491 8.85456 19.3761 8.63624 19.2064 8.46432L11.8711 1.12896C11.771 1.03264 11.6552 0.954091 11.5287 0.89667H11.4187L11.0764 0.774414H3.66768C2.69495 0.774414 1.76206 1.16083 1.07424 1.84865C0.386416 2.53648 0 3.46937 0 4.4421V21.5579C0 22.5307 0.386416 23.4636 1.07424 24.1514C1.76206 24.8392 2.69495 25.2256 3.66768 25.2256H13.4482C13.7724 25.2256 14.0834 25.0968 14.3127 24.8676C14.5419 24.6383 14.6707 24.3273 14.6707 24.0031C14.6707 23.6788 14.5419 23.3679 14.3127 23.1386C14.0834 22.9093 13.7724 22.7805 13.4482 22.7805ZM12.2256 4.94335L15.392 8.10978H13.4482C13.1239 8.10978 12.813 7.98097 12.5837 7.7517C12.3544 7.52242 12.2256 7.21146 12.2256 6.88722V4.94335Z" fill="#217C99"/>
</svg>
