<svg width="44" height="44" viewBox="0 0 44 44" fill="none" xmlns="http://www.w3.org/2000/svg">
<path d="M22 33.6895C22.501 34.0234 23.0229 34.3248 23.5625 34.5919V42.3126C23.5625 42.727 23.3979 43.1244 23.1049 43.4174C22.8119 43.7104 22.4144 43.8751 22 43.8751C21.5856 43.8751 21.1882 43.7104 20.8952 43.4174C20.6022 43.1244 20.4375 42.727 20.4375 42.3126V34.5919C20.9772 34.3248 21.4991 34.0234 22 33.6895ZM35.6915 9.22468C34.5611 6.52594 32.6585 4.22142 30.2225 2.60068C27.7866 0.979928 24.9259 0.115234 22 0.115234C19.0742 0.115234 16.2135 0.979928 13.7776 2.60068C11.3416 4.22142 9.43894 6.52594 8.30864 9.22468C5.86764 10.3404 3.7986 12.1339 2.34777 14.3919C0.896948 16.6498 0.125431 19.2771 0.125046 21.961C0.105514 29.4219 6.37505 35.8673 13.8243 36.0626C16.1155 36.117 18.3854 35.6122 20.4375 34.5919V27.6524L11.9258 23.3985C11.5549 23.2131 11.2729 22.8879 11.1418 22.4945C11.0106 22.1011 11.0412 21.6717 11.2266 21.3008C11.4121 20.93 11.7372 20.6479 12.1306 20.5168C12.524 20.3857 12.9534 20.4162 13.3243 20.6016L20.4375 24.1602V14.1876C20.4375 13.7732 20.6022 13.3757 20.8952 13.0827C21.1882 12.7897 21.5856 12.6251 22 12.6251C22.4144 12.6251 22.8119 12.7897 23.1049 13.0827C23.3979 13.3757 23.5625 13.7732 23.5625 14.1876V19.4727L30.6758 15.9141C30.8595 15.8223 31.0594 15.7676 31.2642 15.753C31.469 15.7384 31.6747 15.7644 31.8695 15.8293C32.0643 15.8942 32.2443 15.9969 32.3995 16.1314C32.5546 16.2659 32.6817 16.4297 32.7735 16.6133C32.8653 16.797 32.9201 16.9969 32.9346 17.2017C32.9492 17.4065 32.9232 17.6122 32.8583 17.807C32.7934 18.0018 32.6907 18.1819 32.5562 18.337C32.4217 18.4921 32.2579 18.6192 32.0743 18.711L23.5625 22.9649V34.5919C25.5051 35.5562 27.6438 36.0595 29.8125 36.0626H30.168C37.625 35.8673 43.8965 29.4219 43.875 21.961C43.8747 19.2771 43.1031 16.6498 41.6523 14.3919C40.2015 12.1339 38.1325 10.3404 35.6915 9.22468Z" fill="#10A957"/>
</svg>
