<svg width="55" height="49" viewBox="0 0 55 49" fill="none" xmlns="http://www.w3.org/2000/svg">
<rect width="55" height="49" rx="5" fill="#4D4D4D"/>
<path d="M28.4342 29.5886L26.1027 31.9201C25.4597 32.5647 25.4989 33.6266 25.7427 34.5052C26.2008 36.1626 25.5709 38.2814 24.3553 39.497C23.9726 39.8798 23.5183 40.1835 23.0183 40.3906C22.5183 40.5978 21.9823 40.7045 21.4411 40.7046C20.8998 40.7047 20.3639 40.5981 19.8638 40.3911C19.3637 40.184 18.9093 39.8805 18.5265 39.4978C18.1438 39.1152 17.8401 38.6609 17.6329 38.1608C17.4257 37.6608 17.319 37.1249 17.319 36.5836C17.3188 35.4905 17.7529 34.4422 18.5257 33.6691C17.7527 34.4419 16.7043 34.876 15.6112 34.8759C14.5181 34.8757 13.4698 34.4413 12.697 33.6683C11.9242 32.8952 11.4901 31.8469 11.4902 30.7538C11.4904 29.6607 11.9248 28.6124 12.6978 27.8396C13.9135 26.6239 16.0323 25.994 17.6913 26.4521C18.5683 26.6959 19.6301 26.7352 20.2748 26.0922L29.6007 16.7662C30.2437 16.1216 30.2045 15.0597 29.9607 14.1811C29.5026 12.5237 30.1325 10.4049 31.3481 9.18927C32.1209 8.41622 33.1692 7.98184 34.2623 7.98169C35.3554 7.98154 36.4038 8.41562 37.1768 9.18845C37.9499 9.96128 38.3843 11.0095 38.3844 12.1026C38.3846 13.1957 37.9505 14.2441 37.1777 15.0172C37.9507 14.2443 38.9991 13.8103 40.0922 13.8104C41.1853 13.8106 42.2336 14.245 43.0064 15.018C43.7792 15.791 44.2133 16.8394 44.2132 17.9325C44.213 19.0256 43.7786 20.0739 43.0056 20.8467C41.7899 22.0624 39.6711 22.6923 38.0121 22.2342C37.1351 21.9904 36.0733 21.9511 35.4286 22.5941L33.0971 24.9256" fill="#4D4D4D"/>
<path d="M28.4342 29.5886L26.1027 31.9201C25.4597 32.5647 25.4989 33.6266 25.7427 34.5052C26.2008 36.1626 25.5709 38.2814 24.3553 39.497C23.9726 39.8798 23.5183 40.1835 23.0183 40.3906C22.5183 40.5978 21.9823 40.7045 21.4411 40.7046C20.8998 40.7047 20.3639 40.5981 19.8638 40.3911C19.3637 40.184 18.9093 39.8805 18.5265 39.4978C18.1438 39.1152 17.8401 38.6609 17.6329 38.1608C17.4257 37.6608 17.319 37.1249 17.319 36.5836C17.3188 35.4905 17.7529 34.4422 18.5257 33.6691C17.7527 34.4419 16.7043 34.876 15.6112 34.8759C14.5181 34.8757 13.4698 34.4413 12.697 33.6683C11.9242 32.8952 11.4901 31.8469 11.4902 30.7538C11.4904 29.6607 11.9248 28.6124 12.6978 27.8396C13.9135 26.6239 16.0323 25.994 17.6913 26.4521C18.5683 26.6959 19.6301 26.7352 20.2748 26.0922L29.6007 16.7662C30.2437 16.1216 30.2045 15.0597 29.9607 14.1811C29.5025 12.5237 30.1325 10.4049 31.3481 9.18927C32.1209 8.41622 33.1692 7.98184 34.2623 7.98169C35.3554 7.98154 36.4038 8.41562 37.1768 9.18845C37.9499 9.96128 38.3843 11.0095 38.3844 12.1026C38.3846 13.1957 37.9505 14.2441 37.1777 15.0172C37.9507 14.2443 38.9991 13.8103 40.0922 13.8104C41.1853 13.8106 42.2336 14.245 43.0064 15.018C43.7792 15.791 44.2133 16.8394 44.2131 17.9325C44.213 19.0256 43.7786 20.0739 43.0056 20.8467C41.7899 22.0624 39.6711 22.6923 38.0121 22.2342C37.1351 21.9904 36.0733 21.9511 35.4286 22.5941L33.0971 24.9256" stroke="white" stroke-width="1.5" stroke-linecap="round" stroke-linejoin="round"/>
</svg>
