<svg width="55" height="55" viewBox="0 0 55 55" fill="none" xmlns="http://www.w3.org/2000/svg">
<circle cx="27.5" cy="27.5" r="27.5" fill="#F8A5A5"/>
<path d="M42.2285 41.3545L13.4993 12.4795L11.6035 14.3753L21.666 24.4378L15.9785 30.1253L19.041 33.1878L14.5202 37.7087V41.792L21.0827 35.2295L24.1452 38.292L29.8327 32.6045L40.3327 43.1045L42.2285 41.3545ZM26.3327 32.167L24.291 34.2087L20.2077 30.1253L23.8535 26.4795L25.8952 28.5212L24.291 30.1253L26.3327 32.167ZM27.3535 22.6878L25.3118 20.6462L30.416 15.6878L33.4785 18.7503L35.5202 16.7087L33.4785 14.667L35.5202 12.6253L41.791 18.7503L39.7493 20.792L37.5618 18.7503L35.5202 20.792L38.5827 23.8545L33.6243 28.9587L29.541 24.8753L30.416 23.8545L32.4577 25.8962L34.4993 23.8545L30.416 19.7712L27.3535 22.6878Z" fill="#D30404"/>
</svg>
