<svg width="45" height="48" viewBox="0 0 45 48" fill="none" xmlns="http://www.w3.org/2000/svg">
<path d="M34.1642 20.0176L13.6284 3.0544C9.9613 0.0252613 4.82824 0.128744 1.98073 3.57597C-0.866779 7.02319 0.000880109 12.0834 3.66799 15.1126L24.2038 32.0758C27.8695 35.1037 33.0031 34.9995 35.85 31.553C38.6975 28.1058 37.8299 23.0455 34.1642 20.0176ZM25.3777 30.6589L15.1957 22.2482L22.8124 13.0273L32.9945 21.4379C35.6984 23.6714 36.2049 27.5683 34.1044 30.1111C32.004 32.654 28.0823 32.893 25.3777 30.6589Z" fill="#D30404"/>
<path d="M30.8257 42.1608L43.192 18.5696C45.4003 14.3569 44.241 9.3554 40.2809 7.27954C36.3208 5.20368 31.548 7.09568 29.3398 11.3084L16.9735 34.8995C14.766 39.1106 15.9261 44.1126 19.8854 46.188C23.8455 48.2639 28.6183 46.3719 30.8257 42.1608ZM18.6018 35.7562L24.7333 24.0593L35.3262 29.612L29.1947 41.309C27.5665 44.4151 23.8577 45.7139 20.9365 44.1827C18.0154 42.6514 16.9732 38.8632 18.6018 35.7562Z" fill="#E7DE8B"/>
</svg>
