<svg width="60" height="60" viewBox="0 0 60 60" fill="none" xmlns="http://www.w3.org/2000/svg">
<path d="M45.1878 3.88477L55.6203 14.7598V56.1148H16.6484V56.2498H55.7534V14.8966L45.1878 3.88477Z" fill="#909090"/>
<path d="M45.0588 3.75H16.5156V56.115H55.6206V14.7619L45.0588 3.75Z" fill="#F4F4F4"/>
<path d="M16.2273 6.5625H4.24609V19.3631H41.9336V6.5625H16.2273Z" fill="#7A7B7C"/>
<path d="M42.1346 19.1455H4.49023V6.33545H42.1346V19.1455Z" fill="#DD2025"/>
<path d="M16.9721 8.50101H14.5215V17.501H16.449V14.4654L16.8746 14.4898C17.2883 14.4841 17.6982 14.4099 18.0877 14.2704C18.4302 14.1541 18.7449 13.9684 19.0121 13.7248C19.2862 13.495 19.5015 13.2031 19.6402 12.8735C19.8301 12.3273 19.8973 11.7461 19.8371 11.171C19.8264 10.7601 19.7544 10.3531 19.6234 9.96351C19.5053 9.6819 19.3297 9.42804 19.1079 9.21818C18.8861 9.00831 18.6229 8.84707 18.3352 8.74476C18.0872 8.65289 17.8301 8.58753 17.5684 8.54976C17.3706 8.51755 17.1706 8.50125 16.9702 8.50101M16.6159 12.8023H16.449V10.0273H16.8109C16.9706 10.0157 17.1308 10.0403 17.2798 10.099C17.4288 10.1577 17.5626 10.2492 17.6715 10.3666C17.8971 10.6685 18.0176 11.036 18.0146 11.4129C18.0146 11.8741 18.0146 12.2923 17.5984 12.5866C17.2986 12.7518 16.9572 12.8279 16.6159 12.8023ZM23.499 8.47663C23.2909 8.47663 23.0884 8.49163 22.9459 8.49726L22.4996 8.50851H21.0371V17.5085H22.7584C23.4161 17.5254 24.0708 17.414 24.6859 17.1804C25.1811 16.9848 25.6194 16.6683 25.9609 16.2598C26.2954 15.8494 26.5344 15.3697 26.6602 14.8554C26.8081 14.274 26.88 13.6759 26.874 13.076C26.9107 12.3675 26.8559 11.6573 26.7109 10.9629C26.5721 10.4523 26.3151 9.98151 25.9609 9.58851C25.683 9.27071 25.3412 9.01515 24.9577 8.83851C24.6293 8.68626 24.2837 8.5742 23.9284 8.50476C23.7871 8.4816 23.644 8.47093 23.5009 8.47288M23.1596 15.8548H22.9721V10.1098H22.9965C23.383 10.0651 23.7742 10.1348 24.1215 10.3104C24.3759 10.5135 24.5831 10.7694 24.729 11.0604C24.8864 11.3666 24.9771 11.7028 24.9952 12.0466C25.0121 12.4591 24.9952 12.7966 24.9952 13.076C25.0022 13.3978 24.9815 13.7196 24.9334 14.0379C24.8744 14.3643 24.7676 14.6801 24.6165 14.9754C24.4458 15.2507 24.2126 15.482 23.9359 15.6504C23.7047 15.8004 23.4306 15.8702 23.1559 15.8491M32.6809 8.50851H28.1246V17.5085H30.0521V13.9385H32.4896V12.266H30.0521V10.181H32.6771V8.50851" fill="#464648"/>
<path d="M40.8393 37.9783C40.8393 37.9783 46.8168 36.8946 46.8168 38.9365C46.8168 40.9783 43.1137 40.1477 40.8393 37.9783ZM36.4199 38.134C35.4701 38.3432 34.5445 38.6505 33.658 39.0508L34.408 37.3633C35.158 35.6758 35.9362 33.3752 35.9362 33.3752C36.8289 34.8829 37.8703 36.2975 39.0449 37.5977C38.1607 37.7294 37.2843 37.9097 36.4199 38.1377V38.134ZM34.0537 25.9465C34.0537 24.1671 34.6293 23.6815 35.0774 23.6815C35.5255 23.6815 36.0299 23.8971 36.0468 25.4421C35.9006 26.9956 35.5753 28.527 35.0774 30.0058C34.3931 28.7651 34.0399 27.369 34.0518 25.9521L34.0537 25.9465ZM25.3368 45.664C23.503 44.5671 29.1824 41.1902 30.2118 41.0815C30.2062 41.0833 27.2568 46.8115 25.3368 45.664ZM48.5624 39.1783C48.5437 38.9908 48.3749 36.9152 44.6812 37.0033C43.1415 36.9763 41.6024 37.0849 40.0818 37.3277C38.6078 35.8441 37.3391 34.1698 36.3093 32.3496C36.9577 30.4733 37.3506 28.5182 37.4774 26.5371C37.423 24.2871 36.8849 22.9971 35.1599 23.0158C33.4349 23.0346 33.1837 24.544 33.4105 26.7902C33.6326 28.2997 34.0518 29.7735 34.6574 31.174C34.6574 31.174 33.8605 33.6546 32.8068 36.1221C31.753 38.5896 31.033 39.8833 31.033 39.8833C29.2004 40.4792 27.4753 41.3655 25.9237 42.5083C24.3787 43.9465 23.7505 45.0508 24.5643 46.1552C25.2655 47.1077 27.7199 47.3233 29.9137 44.449C31.0773 42.9629 32.1421 41.402 33.1012 39.7765C33.1012 39.7765 36.4462 38.8596 37.4868 38.6083C38.5274 38.3571 39.7855 38.1583 39.7855 38.1583C39.7855 38.1583 42.8399 41.2315 45.7855 41.1227C48.7312 41.014 48.5887 39.3621 48.5699 39.1821" fill="#DD2025"/>
<path d="M44.9141 3.89453V14.9064H55.4759L44.9141 3.89453Z" fill="#909090"/>
<path d="M45.0586 3.75V14.7619H55.6205L45.0586 3.75Z" fill="#F4F4F4"/>
<path d="M16.8276 8.35696H14.377V17.357H16.312V14.3232L16.7395 14.3476C17.1532 14.3419 17.5631 14.2678 17.9526 14.1282C18.295 14.012 18.6097 13.8262 18.877 13.5826C19.149 13.3522 19.3623 13.0604 19.4995 12.7313C19.6893 12.1852 19.7565 11.6039 19.6963 11.0288C19.6856 10.6179 19.6136 10.2109 19.4826 9.82134C19.3645 9.53973 19.189 9.28587 18.9671 9.07601C18.7453 8.86615 18.4822 8.7049 18.1945 8.60259C17.9453 8.50983 17.687 8.44384 17.4238 8.40571C17.2261 8.37351 17.0261 8.35721 16.8257 8.35696M16.4713 12.6582H16.3045V9.88321H16.6682C16.8279 9.8717 16.9882 9.89622 17.1371 9.95496C17.2861 10.0137 17.42 10.1052 17.5288 10.2226C17.7544 10.5245 17.8749 10.892 17.872 11.2688C17.872 11.7301 17.872 12.1482 17.4557 12.4426C17.1559 12.6077 16.8145 12.682 16.4732 12.6563M23.3545 8.33259C23.1463 8.33259 22.9438 8.34759 22.8013 8.35321L22.3607 8.36446H20.8982V17.3645H22.6195C23.2772 17.3814 23.9319 17.2699 24.547 17.0363C25.0422 16.8408 25.4805 16.5243 25.822 16.1157C26.1565 15.7054 26.3955 15.2256 26.5213 14.7113C26.6692 14.13 26.7411 13.5318 26.7351 12.932C26.7718 12.2235 26.717 11.5133 26.572 10.8188C26.4331 10.3083 26.1762 9.83747 25.822 9.44447C25.5441 9.12667 25.2022 8.8711 24.8188 8.69446C24.4904 8.54221 24.1448 8.43015 23.7895 8.36071C23.6482 8.33756 23.5051 8.32689 23.362 8.32884M23.0207 15.7107H22.8332V9.96571H22.8576C23.2441 9.92102 23.6353 9.99078 23.9826 10.1663C24.2369 10.3695 24.4442 10.6253 24.5901 10.9163C24.7475 11.2226 24.8382 11.5587 24.8563 11.9026C24.8732 12.3151 24.8563 12.6526 24.8563 12.932C24.8633 13.2538 24.8426 13.5756 24.7945 13.8938C24.7355 14.2202 24.6287 14.5361 24.4776 14.8313C24.3069 15.1067 24.0737 15.3379 23.797 15.5063C23.5658 15.6563 23.2917 15.7262 23.017 15.7051M32.5363 8.36446H27.9801V17.3645H29.9076V13.7945H32.3451V12.122H29.9076V10.037H32.5326V8.36446" fill="white"/>
</svg>
