<svg width="50" height="50" viewBox="0 0 50 50" fill="none" xmlns="http://www.w3.org/2000/svg">
<g clip-path="url(#clip0_665_8328)">
<path d="M12.5 11.3574C19.4 11.3574 25 16.9574 25 23.8574V25.0002H1.14277C0.514258 25.0002 0 24.4859 0 23.8574C0 16.9574 5.6 11.3574 12.5 11.3574Z" fill="#FBBB05"/>
<path d="M38.6428 12.5C38.6428 19.4 33.0428 25 26.1428 25H25V1.14277C25 0.514258 25.5143 0 26.1428 0C33.0428 0 38.6428 5.6 38.6428 12.5Z" fill="#E94335"/>
<path d="M37.5 38.6428C30.6 38.6428 25 33.0428 25 26.1428V25H48.8572C49.4857 25 50 25.5143 50 26.1428C50 33.0428 44.4 38.6428 37.5 38.6428Z" fill="#4285F4"/>
<path d="M11.3574 37.5C11.3574 30.6 16.9574 25 23.8574 25H25.0002V48.8572C25.0002 49.4857 24.4859 50 23.8574 50C16.9574 50 11.3574 44.4 11.3574 37.5Z" fill="#0F9D58"/>
</g>
<defs>
<clipPath id="clip0_665_8328">
<rect width="50" height="50" fill="white"/>
</clipPath>
</defs>
</svg>
