<svg width="38" height="39" viewBox="0 0 38 39" fill="none" xmlns="http://www.w3.org/2000/svg">
<path d="M13.125 38.25C12.0938 38.25 11.2112 37.8831 10.4775 37.1494C9.74375 36.4156 9.37625 35.5325 9.375 34.5V28.875H3.75C2.71875 28.875 1.83625 28.5081 1.1025 27.7744C0.36875 27.0406 0.00125 26.1575 0 25.125V21.375H12.0938L15.2812 26.1562C15.4375 26.4062 15.6562 26.6094 15.9375 26.7656C16.2188 26.9219 16.5156 27 16.8281 27C17.2344 27 17.6094 26.875 17.9531 26.625C18.2969 26.375 18.5312 26.0625 18.6562 25.6875L21.1875 18.0938L22.7812 20.5312C22.9688 20.7812 23.2031 20.9844 23.4844 21.1406C23.7656 21.2969 24.0625 21.375 24.375 21.375H37.5V25.125C37.5 26.1562 37.1325 27.0394 36.3975 27.7744C35.6625 28.5094 34.78 28.8762 33.75 28.875H28.125V34.5C28.125 35.5312 27.7581 36.4144 27.0244 37.1494C26.2906 37.8844 25.4075 38.2513 24.375 38.25H13.125ZM16.3125 20.9062L14.6719 18.4688C14.5156 18.2188 14.2969 18.0156 14.0156 17.8594C13.7344 17.7031 13.4375 17.625 13.125 17.625H0V13.875C0 12.8438 0.3675 11.9612 1.1025 11.2275C1.8375 10.4937 2.72 10.1263 3.75 10.125H9.375V4.5C9.375 3.46875 9.7425 2.58625 10.4775 1.8525C11.2125 1.11875 12.095 0.75125 13.125 0.75H24.375C25.4062 0.75 26.2894 1.1175 27.0244 1.8525C27.7594 2.5875 28.1262 3.47 28.125 4.5V10.125H33.75C34.7812 10.125 35.6644 10.4925 36.3994 11.2275C37.1344 11.9625 37.5013 12.845 37.5 13.875V17.625H25.3594L22.1719 12.8438C22.0156 12.5938 21.7969 12.3906 21.5156 12.2344C21.2344 12.0781 20.9375 12 20.625 12C20.2188 12 19.8519 12.125 19.5244 12.375C19.1969 12.625 18.97 12.9375 18.8438 13.3125L16.3125 20.9062Z" fill="#F87AB4"/>
</svg>
